{"title":"CSI Miami 8x24 HDTV + Xvid + AC3","uid":5594607,"size":461675863,"categoryP":"video","categoryS":"hd___tv_shows","magnet":"?xt=urn:btih:6c3815e0cbedef5111d22fc94fb6af841404fbe4&amp;dn=CSI+Miami+8x24+HDTV+%2B+Xvid+%2B+AC3&amp;tr=udp%3A%2F%2Ftracker.openbittorrent.com%3A80&amp;tr=udp%3A%2F%2Fopen.demonii.com%3A1337&amp;tr=udp%3A%2F%2Ftracker.coppersurfer.tk%3A6969&amp;tr=udp%3A%2F%2Fexodus.desync.com%3A6969","seeders":0,"leechers":1,"uploader":"fleqii","files":1,"time":1274991031,"description":"E:UsersJOELDownloadsCSI Miami 8x24 HDTV + Xvid + AC3.mkv\n   General\n      Complete name : E:UsersJOELDownloadsCSI Miami 8x24 HDTV + Xvid + AC3.mkv\n      Format : Matroska\n      File size : 440 MiB\n      Duration : 40mn 54s\n      Overall bit rate : 1 505 Kbps\n      Encoded date : UTC 2010-05-27 17:52:29\n      Writing application : VirtualDubMod 1.5.10.2 (build 2540/release)\n      Writing library : libebml-0.7.5 &amp; libmatroska-0.7.7\n   Video #1\n      ID : 1\n      Format : MPEG-4 Visual\n      Format profile : AdvancedSimple@L5\n      Format settings, BVOP : Yes\n      Format settings, QPel : No\n      Format settings, GMC : No warppoints\n      Format settings, Matrix : Default (H.263)\n      Codec ID : XVID\n      Codec ID/Hint : XviD\n      Duration : 40mn 51s\n      Bit rate : 1 027 Kbps\n      Width : 624 pixels\n      Height : 352 pixels\n      Display aspect ratio : 16:9\n      Frame rate : 23.976 fps\n      Resolution : 24 bits\n      Colorimetry : 4:2:0\n      Scan type : Progressive\n      Bits/(Pixel*Frame) : 0.195\n      Stream size : 300 MiB (68%)\n      Writing library : XviD 1.2.1 (UTC 2008-12-04)\n   Audio #2\n      ID : 2\n      Format : AC-3\n      Format/Info : Audio Coding 3\n      Codec ID : A_AC3\n      Duration : 40mn 54s\n      Bit rate mode : Constant\n      Bit rate : 448 Kbps\n      Channel(s) : 2 channels\n      Channel positions : L R\n      Sampling rate : 48.0 KHz\n      Stream size : 131 MiB (30%)","torrent":{"xt":"urn:btih:6c3815e0cbedef5111d22fc94fb6af841404fbe4","amp;dn":"CSI+Miami+8x24+HDTV+%2B+Xvid+%2B+AC3","amp;tr":["udp%3A%2F%2Ftracker.openbittorrent.com%3A80","udp%3A%2F%2Fopen.demonii.com%3A1337","udp%3A%2F%2Ftracker.coppersurfer.tk%3A6969","udp%3A%2F%2Fexodus.desync.com%3A6969"],"infoHash":"6c3815e0cbedef5111d22fc94fb6af841404fbe4","infoHashBuffer":{"type":"Buffer","data":[108,56,21,224,203,237,239,81,17,210,47,201,79,182,175,132,20,4,251,228]},"announce":[],"urlList":[]}}